Coordinates
version=1
nRows=5
nColumns=40
inDegrees=yes

Units are S.I. units (second, meters, Newtons, ...)
Angles are in degrees.

endheader
time	pelvis_tilt	pelvis_list	pelvis_rotation	pelvis_tx	pelvis_ty	pelvis_tz	hip_flexion_r	hip_adduction_r	hip_rotation_r	knee_angle_r	knee_angle_r_beta	ankle_angle_r	subtalar_angle_r	mtp_angle_r	hip_flexion_l	hip_adduction_l	hip_rotation_l	knee_angle_l	knee_angle_l_beta	ankle_angle_l	subtalar_angle_l	mtp_angle_l	lumbar_extension	lumbar_bending	lumbar_rotation	arm_flex_r	arm_add_r	arm_rot_r	elbow_flex_r	pro_sup_r	wrist_flex_r	wrist_dev_r	arm_flex_l	arm_add_l	arm_rot_l	elbow_flex_l	pro_sup_l	wrist_flex_l	wrist_dev_l
     32.92000000	     -2.79612924	     -3.87282016	    -10.61522989	      0.95888101	      0.92783398	      0.48165177	     26.70661085	     -0.30576565	     -6.55863330	     23.12964581	     23.12964581	      5.25865916	      0.03928642	      0.47950843	      4.97721078	     -2.44565151	    -10.43912132	     19.70499308	     19.70499308	     18.86085047	    -15.43574079	      2.32096381	    -12.12152126	      8.51042227	      1.13978970	    -17.60962721	    -10.80239232	    -14.82722748	     26.85025781	     46.91665236	      0.00000000	      0.00000000	     37.02851209	    -22.97389274	     -3.93643068	     73.35209613	     47.25546307	      0.00000000	      0.00000000
     32.93885714	     -2.86999979	     -3.88710048	    -10.98634359	      0.96011633	      0.92714818	      0.48506660	     25.87899531	      0.05494021	     -6.92835666	     20.32427044	     20.32427044	      4.77311184	      2.56910402	      1.21634574	      4.15717595	     -2.57937616	    -10.94491195	     19.11354843	     19.11354843	     19.05248837	    -15.10511604	      1.89733936	    -12.04889212	      8.46433189	      1.14086896	    -18.38816159	    -10.71531273	    -14.89230286	     27.18325669	     46.89268860	      0.00000000	      0.00000000	     37.91090578	    -23.28842124	     -4.48084977	     74.33453443	     47.32388345	      0.00000000	      0.00000000
     32.95771429	     -2.88640886	     -3.79296253	    -11.33469839	      0.96170065	      0.92608593	      0.48854798	     25.25182066	      0.14048852	     -7.66764994	     18.51675420	     18.51675420	      4.50096658	      5.34287773	      1.67238910	      3.29881794	     -2.60711277	    -11.59487605	     18.56842471	     18.56842471	     19.21863394	    -14.55958780	      1.06401920	    -12.02527485	      8.30531678	      1.17201629	    -19.19046923	    -10.62431162	    -15.06364078	     28.10016002	     46.84578260	      0.00000000	      0.00000000	     38.54021511	    -23.44142505	     -5.47191403	     75.79387763	     47.43402961	      0.00000000	      0.00000000
     32.97657143	     -3.00756140	     -3.73204844	    -11.62889765	      0.96354863	      0.92475330	      0.49226571	     24.81318029	      0.31882215	     -8.14495829	     17.31771571	     17.31771571	      4.07982622	      7.07381732	      1.60000861	      2.61339550	     -2.70385529	    -12.09552096	     18.16460239	     18.16460239	     19.24849055	    -14.23553127	     -0.07744155	    -11.83754519	      8.23594377	      0.96402229	    -19.82913259	    -10.55776641	    -15.29926250	     29.67745840	     46.76234664	      0.00000000	      0.00000000	     38.67222795	    -23.53474979	     -7.03547938	     77.50094195	     47.59630438	      0.00000000	      0.00000000
     32.99542857	     -3.11672776	     -3.73558482	    -11.88739312	      0.96559650	      0.92353914	      0.49622270	     24.42891420	      0.61290655	     -8.22565712	     16.68055496	     16.68055496	      3.74704352	      7.72546285	      1.57525564	      1.95554084	     -2.84735806	    -12.36019151	     17.89647287	     17.89647287	     19.55746168	    -14.12571448	     -0.22731285	    -11.63794262	      8.21689599	      1.04441751	    -19.89184101	    -10.48081122	    -15.30715418	     29.81132292	     46.75203788	      0.00000000	      0.00000000	     39.27162997	    -23.67074915	     -7.38538030	     78.06715201	     47.63752709	      0.00000000	      0.00000000
